# Blender v2.76 (sub 0) OBJ File: 'pig.blend'
# www.blender.org
o leg_front_r
v 0.300000 0.000000 -0.456250
v 0.112500 0.000000 -0.456250
v 0.112500 0.375000 -0.456250
v 0.300000 0.375000 -0.456250
v 0.112500 -0.000000 -0.268750
v 0.300000 -0.000000 -0.268750
v 0.300000 0.375000 -0.268750
v 0.112500 0.375000 -0.268750
vt 0.093750 0.718750
vt 0.093750 0.906250
vt 0.046875 0.906250
vt 0.187500 0.718750
vt 0.187500 0.906250
vt 0.140625 0.906250
vt 0.093750 1.000000
vt 0.046875 1.000000
vt 0.140625 1.000000
vt 0.046875 0.718750
vt 0.000000 0.906250
vt 0.140625 0.718750
vt 0.000000 0.718750
vn 0.000000 0.000000 -1.000000
vn 0.000000 -0.000000 1.000000
vn 0.000000 1.000000 0.000000
vn 0.000000 -1.000000 -0.000000
vn 1.000000 0.000000 0.000000
vn -1.000000 0.000000 0.000000
s off
f 2/1/1 3/2/1 4/3/1
f 6/4/2 7/5/2 8/6/2
f 3/2/3 8/7/3 7/8/3
f 5/6/4 2/9/4 1/7/4
f 1/10/5 4/3/5 7/11/5
f 2/1/6 5/12/6 8/6/6
f 1/10/1 2/1/1 4/3/1
f 5/12/2 6/4/2 8/6/2
f 4/3/3 3/2/3 7/8/3
f 6/2/4 5/6/4 1/7/4
f 6/13/5 1/10/5 7/11/5
f 3/2/6 2/1/6 8/6/6
o leg_front_l
v -0.112500 0.000000 -0.456250
v -0.300000 0.000000 -0.456250
v -0.300000 0.375000 -0.456250
v -0.112500 0.375000 -0.456250
v -0.300000 -0.000000 -0.268750
v -0.112500 -0.000000 -0.268750
v -0.112500 0.375000 -0.268750
v -0.300000 0.375000 -0.268750
vt 0.093750 0.718750
vt 0.093750 0.906250
vt 0.046875 0.906250
vt 0.187500 0.718750
vt 0.187500 0.906250
vt 0.140625 0.906250
vt 0.093750 1.000000
vt 0.046875 1.000000
vt 0.140625 1.000000
vt 0.046875 0.718750
vt 0.000000 0.906250
vt 0.140625 0.718750
vt 0.000000 0.718750
vn 0.000000 0.000000 -1.000000
vn 0.000000 -0.000000 1.000000
vn 0.000000 1.000000 0.000000
vn 0.000000 -1.000000 -0.000000
vn 1.000000 0.000000 0.000000
vn -1.000000 -0.000000 0.000000
s off
f 10/14/7 11/15/7 12/16/7
f 14/17/8 15/18/8 16/19/8
f 11/15/9 16/20/9 15/21/9
f 13/19/10 10/22/10 9/20/10
f 9/23/11 12/16/11 15/24/11
f 10/14/12 13/25/12 16/19/12
f 9/23/7 10/14/7 12/16/7
f 13/25/8 14/17/8 16/19/8
f 12/16/9 11/15/9 15/21/9
f 14/15/10 13/19/10 9/20/10
f 14/26/11 9/23/11 15/24/11
f 11/15/12 10/14/12 16/19/12
o leg_back_r
v 0.300000 0.000000 0.393750
v 0.112500 0.000000 0.393750
v 0.112500 0.375000 0.393750
v 0.300000 0.375000 0.393750
v 0.112500 -0.000000 0.581250
v 0.300000 -0.000000 0.581250
v 0.300000 0.375000 0.581250
v 0.112500 0.375000 0.581250
vt 0.093750 0.718750
vt 0.093750 0.906250
vt 0.046875 0.906250
vt 0.187500 0.718750
vt 0.187500 0.906250
vt 0.140625 0.906250
vt 0.093750 1.000000
vt 0.046875 1.000000
vt 0.140625 1.000000
vt 0.046875 0.718750
vt 0.000000 0.906250
vt 0.140625 0.718750
vt 0.000000 0.718750
vn 0.000000 0.000000 -1.000000
vn 0.000000 -0.000000 1.000000
vn 0.000000 1.000000 0.000000
vn 0.000000 -1.000000 -0.000000
vn 1.000000 0.000000 0.000000
vn -1.000000 0.000000 0.000000
s off
f 18/27/13 19/28/13 20/29/13
f 22/30/14 23/31/14 24/32/14
f 19/28/15 24/33/15 23/34/15
f 21/32/16 18/35/16 17/33/16
f 17/36/17 20/29/17 23/37/17
f 18/27/18 21/38/18 24/32/18
f 17/36/13 18/27/13 20/29/13
f 21/38/14 22/30/14 24/32/14
f 20/29/15 19/28/15 23/34/15
f 22/28/16 21/32/16 17/33/16
f 22/39/17 17/36/17 23/37/17
f 19/28/18 18/27/18 24/32/18
o leg_back_l
v -0.112500 0.000000 0.393750
v -0.300000 0.000000 0.393750
v -0.300000 0.375000 0.393750
v -0.112500 0.375000 0.393750
v -0.300000 -0.000000 0.581250
v -0.112500 -0.000000 0.581250
v -0.112500 0.375000 0.581250
v -0.300000 0.375000 0.581250
vt 0.093750 0.718750
vt 0.093750 0.906250
vt 0.046875 0.906250
vt 0.187500 0.718750
vt 0.187500 0.906250
vt 0.140625 0.906250
vt 0.093750 1.000000
vt 0.046875 1.000000
vt 0.140625 1.000000
vt 0.046875 0.718750
vt 0.000000 0.906250
vt 0.140625 0.718750
vt 0.000000 0.718750
vn 0.000000 0.000000 -1.000000
vn 0.000000 -0.000000 1.000000
vn 0.000000 1.000000 0.000000
vn 0.000000 -1.000000 -0.000000
vn 1.000000 0.000000 0.000000
vn -1.000000 -0.000000 0.000000
s off
f 26/40/19 27/41/19 28/42/19
f 30/43/20 31/44/20 32/45/20
f 27/41/21 32/46/21 31/47/21
f 29/45/22 26/48/22 25/46/22
f 25/49/23 28/42/23 31/50/23
f 26/40/24 29/51/24 32/45/24
f 25/49/19 26/40/19 28/42/19
f 29/51/20 30/43/20 32/45/20
f 28/42/21 27/41/21 31/47/21
f 30/41/22 29/45/22 25/46/22
f 30/52/23 25/49/23 31/50/23
f 27/41/24 26/40/24 32/45/24
o head
v -0.156250 0.656250 -0.475000
v 0.156250 0.656250 -0.475000
v 0.156250 0.968750 -0.475000
v -0.156250 0.968750 -0.475000
v -0.156250 0.656250 -0.787500
v -0.156250 0.956250 -0.568750
v -0.156250 0.831250 -0.568750
v -0.156250 0.831250 -0.693750
v -0.156250 0.956250 -0.693750
v -0.156250 0.968750 -0.787500
v 0.156250 0.656250 -0.787500
v 0.156250 0.831250 -0.693750
v 0.156250 0.831250 -0.568750
v 0.156250 0.956250 -0.568750
v 0.156250 0.968750 -0.787500
v 0.156250 0.956250 -0.693750
v 0.212500 0.831250 -0.693750
v 0.212500 0.831250 -0.568750
v 0.212500 0.956250 -0.568750
v 0.212500 0.956250 -0.693750
v -0.062500 0.706250 -0.787500
v 0.062500 0.706250 -0.787500
v 0.062500 0.831250 -0.787500
v -0.062500 0.831250 -0.787500
v -0.062500 0.706250 -0.850000
v -0.062500 0.831250 -0.850000
v 0.062500 0.706250 -0.850000
v 0.062500 0.831250 -0.850000
v -0.218750 0.831250 -0.693750
v -0.218750 0.831250 -0.568750
v -0.218750 0.956250 -0.568750
v -0.218750 0.956250 -0.693750
vt 0.750000 0.687500
vt 0.750000 0.843750
vt 0.671875 0.843750
vt 0.648438 0.837500
vt 0.648438 0.775000
vt 0.617188 0.837500
vt 0.593750 0.843750
vt 0.828125 0.843750
vt 0.828125 1.000000
vt 0.750000 1.000000
vt 0.773438 0.775000
vt 0.671875 1.000000
vt 0.906250 0.687500
vt 0.906250 0.843750
vt 0.804688 0.837500
vt 0.804688 0.775000
vt 0.171875 0.656250
vt 0.203125 0.656250
vt 0.203125 0.684375
vt 0.187500 0.593750
vt 0.187500 0.656250
vt 0.173438 0.656250
vt 0.171875 0.687500
vt 0.140625 0.687500
vt 0.140625 0.659375
vt 0.125000 0.656250
vt 0.125000 0.593750
vt 0.139062 0.593750
vt 0.218750 0.593750
vt 0.218750 0.656250
vt 0.140625 0.593750
vt 0.171875 0.593750
vt 0.140625 0.656250
vt 0.203125 0.687500
vt 0.046875 0.593750
vt 0.046875 0.656250
vt 0.015625 0.656250
vt 0.015625 0.593750
vt 0.000000 0.656250
vt 0.078125 0.656250
vt 0.078125 0.687500
vt 0.046875 0.687500
vt 0.062500 0.593750
vt 0.062500 0.656250
vt 0.015625 0.687500
vt 0.093750 0.593750
vt 0.093750 0.656250
vt 0.671875 0.687500
vt 0.617188 0.775000
vt 0.593750 0.687500
vt 0.828125 0.687500
vt 0.773437 0.837500
vt 0.171875 0.684375
vt 0.173438 0.593750
vt 0.171875 0.659375
vt 0.139062 0.656250
vt 0.000000 0.593750
vn 0.000000 -0.000000 1.000000
vn -1.000000 0.000000 0.000000
vn 0.000000 -1.000000 0.000000
vn 1.000000 0.000000 0.000000
vn 0.000000 1.000000 0.000000
vn 0.000000 0.000000 -1.000000
s off
f 34/53/25 35/54/25 36/55/25
f 36/55/26 38/56/26 39/57/26
f 41/58/26 36/55/26 42/59/26
f 43/60/27 34/61/27 33/62/27
f 45/63/28 35/54/28 34/53/28
f 35/54/29 47/62/29 42/64/29
f 37/65/30 42/66/30 47/60/30
f 47/60/28 48/67/28 44/68/28
f 49/69/27 50/70/27 45/71/27
f 50/72/25 51/73/25 46/74/25
f 51/75/29 52/76/29 48/77/29
f 52/78/30 49/79/30 44/80/30
f 49/81/28 52/82/28 51/73/28
f 61/83/26 62/84/26 63/69/26
f 61/83/30 64/85/30 41/78/30
f 39/70/27 62/86/27 61/75/27
f 39/72/25 38/73/25 63/69/25
f 63/69/29 38/75/29 41/76/29
f 54/87/25 55/88/25 56/89/25
f 53/90/26 56/89/26 58/91/26
f 59/92/27 54/93/27 53/94/27
f 59/95/28 60/96/28 55/88/28
f 55/88/29 60/94/29 58/97/29
f 57/98/30 58/99/30 60/96/30
f 33/100/25 34/53/25 36/55/25
f 40/101/26 37/102/26 39/57/26
f 33/100/26 36/55/26 39/57/26
f 39/57/26 37/102/26 33/100/26
f 42/59/26 37/102/26 40/101/26
f 41/58/26 38/56/26 36/55/26
f 42/59/26 40/101/26 41/58/26
f 37/54/27 43/60/27 33/62/27
f 34/53/28 43/103/28 45/63/28
f 45/63/28 46/104/28 35/54/28
f 43/103/28 44/68/28 45/63/28
f 36/55/29 35/54/29 42/64/29
f 43/103/30 37/65/30 47/60/30
f 47/60/28 35/54/28 48/67/28
f 44/68/28 43/103/28 47/60/28
f 35/54/28 46/104/28 48/67/28
f 44/105/27 49/69/27 45/71/27
f 45/106/25 50/72/25 46/74/25
f 46/107/29 51/75/29 48/77/29
f 48/108/30 52/78/30 44/80/30
f 50/72/28 49/81/28 51/73/28
f 64/85/26 61/83/26 63/69/26
f 40/79/30 61/83/30 41/78/30
f 40/69/27 39/70/27 61/75/27
f 62/84/25 39/72/25 63/69/25
f 64/85/29 63/69/29 41/76/29
f 53/90/25 54/87/25 56/89/25
f 57/109/26 53/90/26 58/91/26
f 57/88/27 59/92/27 53/94/27
f 54/87/28 59/95/28 55/88/28
f 56/89/29 55/88/29 58/97/29
f 59/95/30 57/98/30 60/96/30
o body
v 0.312500 0.375000 -0.468750
v -0.312500 0.375000 -0.468750
v -0.312500 0.875000 -0.468750
v 0.312500 0.875000 -0.468750
v -0.312500 0.375000 0.593750
v 0.312500 0.375000 0.593750
v 0.312500 0.875000 0.593750
v -0.312500 0.875000 0.593750
vt 0.421875 0.218750
vt 0.421875 0.468750
vt 0.265625 0.468750
vt 0.843750 0.218750
vt 0.843750 0.468750
vt 0.687500 0.468750
vt 0.421875 1.000000
vt 0.265625 1.000000
vt 0.578125 0.468750
vt 0.578125 1.000000
vt 0.000000 0.218750
vt 0.265625 0.218750
vt 0.687500 0.218750
vt 0.000000 0.468750
vn 0.000000 0.000000 -1.000000
vn 0.000000 -0.000000 1.000000
vn 0.000000 1.000000 0.000000
vn 0.000000 -1.000000 -0.000000
vn 1.000000 -0.000000 0.000000
vn -1.000000 0.000000 0.000000
s off
f 66/110/31 67/111/31 68/112/31
f 70/113/32 71/114/32 72/115/32
f 67/111/33 72/116/33 71/117/33
f 69/118/34 66/119/34 65/116/34
f 70/120/35 65/121/35 68/112/35
f 69/122/36 72/115/36 67/111/36
f 65/121/31 66/110/31 68/112/31
f 69/122/32 70/113/32 72/115/32
f 68/112/33 67/111/33 71/117/33
f 70/111/34 69/118/34 65/116/34
f 71/123/35 70/120/35 68/112/35
f 66/110/36 69/122/36 67/111/36
